<mxfile host="app.diagrams.net" modified="2023-04-13T10:37:34.057Z" agent="Mozilla/5.0 (X11; Linux x86_64) AppleWebKit/537.36 (KHTML, like Gecko) Chrome/111.0.0.0 Safari/537.36" etag="F0MOp4bkjLpVcNnz4t6X" version="21.1.5" type="github">
  <diagram name="Page-1" id="xL_mL3uQGt_RRo6SK7Nt">
    <mxGraphModel dx="1955" dy="713" grid="1" gridSize="10" guides="1" tooltips="1" connect="1" arrows="1" fold="1" page="1" pageScale="1" pageWidth="850" pageHeight="1100" math="0" shadow="0">
      <root>
        <mxCell id="0" />
        <mxCell id="1" parent="0" />
        <mxCell id="ImkMiQtcr7QwH4ZMUTRw-45" value="" style="rounded=0;whiteSpace=wrap;html=1;fillColor=none;" vertex="1" parent="1">
          <mxGeometry x="160" y="230" width="610" height="370" as="geometry" />
        </mxCell>
        <mxCell id="ImkMiQtcr7QwH4ZMUTRw-6" value="" style="rounded=0;whiteSpace=wrap;html=1;fillColor=#eeeeee;dashed=1;strokeColor=#36393d;" vertex="1" parent="1">
          <mxGeometry x="160" y="230" width="610" height="370" as="geometry" />
        </mxCell>
        <mxCell id="ImkMiQtcr7QwH4ZMUTRw-1" value="&lt;b style=&quot;font-size: 14px;&quot;&gt;S3 object storage:&lt;br&gt;&quot;measurements&quot; bucket&lt;/b&gt;" style="shape=cylinder3;whiteSpace=wrap;html=1;boundedLbl=1;backgroundOutline=1;size=15;strokeWidth=3;" vertex="1" parent="1">
          <mxGeometry x="610" y="460" width="120" height="110" as="geometry" />
        </mxCell>
        <mxCell id="ImkMiQtcr7QwH4ZMUTRw-2" value="&lt;b style=&quot;font-size: 14px;&quot;&gt;S3 object storage:&lt;br&gt;&quot;import&quot; bucket&lt;/b&gt;" style="shape=cylinder3;whiteSpace=wrap;html=1;boundedLbl=1;backgroundOutline=1;size=15;strokeWidth=3;" vertex="1" parent="1">
          <mxGeometry x="590" y="250" width="120" height="100" as="geometry" />
        </mxCell>
        <mxCell id="ImkMiQtcr7QwH4ZMUTRw-23" style="edgeStyle=orthogonalEdgeStyle;rounded=0;orthogonalLoop=1;jettySize=auto;html=1;exitX=1;exitY=0.5;exitDx=0;exitDy=0;entryX=0;entryY=0;entryDx=0;entryDy=67.5;entryPerimeter=0;strokeWidth=3;curved=1;" edge="1" parent="1" source="ImkMiQtcr7QwH4ZMUTRw-3" target="ImkMiQtcr7QwH4ZMUTRw-2">
          <mxGeometry relative="1" as="geometry" />
        </mxCell>
        <mxCell id="ImkMiQtcr7QwH4ZMUTRw-34" style="edgeStyle=orthogonalEdgeStyle;rounded=0;orthogonalLoop=1;jettySize=auto;html=1;exitX=0.25;exitY=1;exitDx=0;exitDy=0;entryX=0.5;entryY=0;entryDx=0;entryDy=0;entryPerimeter=0;curved=1;strokeWidth=3;fillColor=#b0e3e6;strokeColor=#000000;" edge="1" parent="1" source="ImkMiQtcr7QwH4ZMUTRw-3" target="ImkMiQtcr7QwH4ZMUTRw-8">
          <mxGeometry relative="1" as="geometry" />
        </mxCell>
        <mxCell id="ImkMiQtcr7QwH4ZMUTRw-42" style="edgeStyle=orthogonalEdgeStyle;rounded=0;orthogonalLoop=1;jettySize=auto;html=1;exitX=0.5;exitY=1;exitDx=0;exitDy=0;strokeWidth=3;fillColor=#fad9d5;strokeColor=#ae4132;" edge="1" parent="1" source="ImkMiQtcr7QwH4ZMUTRw-3" target="ImkMiQtcr7QwH4ZMUTRw-7">
          <mxGeometry relative="1" as="geometry" />
        </mxCell>
        <mxCell id="ImkMiQtcr7QwH4ZMUTRw-3" value="&lt;b&gt;&lt;font style=&quot;font-size: 15px;&quot;&gt;Measurement API &lt;br&gt;&amp;amp;&amp;nbsp;&lt;br&gt;Task scheduler&lt;br&gt;&lt;/font&gt;&lt;/b&gt;" style="rounded=0;whiteSpace=wrap;html=1;strokeWidth=3;" vertex="1" parent="1">
          <mxGeometry x="210" y="280" width="190" height="120" as="geometry" />
        </mxCell>
        <mxCell id="ImkMiQtcr7QwH4ZMUTRw-4" value="External 3rdparty data API" style="rounded=0;whiteSpace=wrap;html=1;strokeWidth=3;fontStyle=1" vertex="1" parent="1">
          <mxGeometry x="-10" y="310" width="120" height="60" as="geometry" />
        </mxCell>
        <mxCell id="ImkMiQtcr7QwH4ZMUTRw-5" value="" style="shape=flexArrow;endArrow=classic;startArrow=classic;html=1;rounded=0;entryX=0.5;entryY=1;entryDx=0;entryDy=0;width=0;startSize=5.33;endSize=5.33;" edge="1" parent="1" source="ImkMiQtcr7QwH4ZMUTRw-12" target="ImkMiQtcr7QwH4ZMUTRw-4">
          <mxGeometry width="100" height="100" relative="1" as="geometry">
            <mxPoint x="210" y="260" as="sourcePoint" />
            <mxPoint x="280" y="140" as="targetPoint" />
          </mxGeometry>
        </mxCell>
        <mxCell id="ImkMiQtcr7QwH4ZMUTRw-8" value="&lt;b&gt;Metadata&lt;br&gt;(Postgres)&lt;br&gt;&lt;/b&gt;" style="shape=cylinder3;whiteSpace=wrap;html=1;boundedLbl=1;backgroundOutline=1;size=15;strokeWidth=3;fillColor=#eeeeee;strokeColor=#36393d;" vertex="1" parent="1">
          <mxGeometry x="250" y="470" width="70" height="80" as="geometry" />
        </mxCell>
        <mxCell id="ImkMiQtcr7QwH4ZMUTRw-26" value="" style="curved=1;endArrow=classic;html=1;rounded=0;exitX=0.177;exitY=0.96;exitDx=0;exitDy=0;exitPerimeter=0;entryX=0;entryY=0.5;entryDx=0;entryDy=0;strokeWidth=3;entryPerimeter=0;" edge="1" parent="1" source="ImkMiQtcr7QwH4ZMUTRw-7" target="ImkMiQtcr7QwH4ZMUTRw-1">
          <mxGeometry width="50" height="50" relative="1" as="geometry">
            <mxPoint x="540" y="390" as="sourcePoint" />
            <mxPoint x="580" y="450" as="targetPoint" />
            <Array as="points">
              <mxPoint x="540" y="470" />
            </Array>
          </mxGeometry>
        </mxCell>
        <mxCell id="ImkMiQtcr7QwH4ZMUTRw-37" value="" style="shape=flexArrow;endArrow=classic;startArrow=classic;html=1;rounded=0;exitX=1;exitY=0.5;exitDx=0;exitDy=0;fillColor=#f9f7ed;strokeColor=#36393d;strokeWidth=2;" edge="1" parent="1" source="ImkMiQtcr7QwH4ZMUTRw-4" target="ImkMiQtcr7QwH4ZMUTRw-3">
          <mxGeometry width="100" height="100" relative="1" as="geometry">
            <mxPoint x="130" y="340" as="sourcePoint" />
            <mxPoint x="230" y="240" as="targetPoint" />
          </mxGeometry>
        </mxCell>
        <mxCell id="ImkMiQtcr7QwH4ZMUTRw-38" value="Data user,&amp;nbsp;&lt;br&gt;fetches data from OGC EDR API" style="rounded=0;whiteSpace=wrap;html=1;strokeWidth=3;fontStyle=1" vertex="1" parent="1">
          <mxGeometry x="245" y="125" width="120" height="60" as="geometry" />
        </mxCell>
        <mxCell id="ImkMiQtcr7QwH4ZMUTRw-39" value="" style="shape=flexArrow;endArrow=classic;startArrow=classic;html=1;rounded=0;exitX=0.5;exitY=1;exitDx=0;exitDy=0;fillColor=#f9f7ed;strokeColor=#36393d;strokeWidth=2;" edge="1" parent="1" source="ImkMiQtcr7QwH4ZMUTRw-38" target="ImkMiQtcr7QwH4ZMUTRw-3">
          <mxGeometry width="100" height="100" relative="1" as="geometry">
            <mxPoint x="140" y="350" as="sourcePoint" />
            <mxPoint x="220" y="350" as="targetPoint" />
          </mxGeometry>
        </mxCell>
        <mxCell id="ImkMiQtcr7QwH4ZMUTRw-40" value="" style="curved=1;endArrow=classic;html=1;rounded=0;exitX=0.177;exitY=0.96;exitDx=0;exitDy=0;exitPerimeter=0;entryX=0;entryY=0.5;entryDx=0;entryDy=0;strokeWidth=3;entryPerimeter=0;" edge="1" parent="1" source="ImkMiQtcr7QwH4ZMUTRw-2" target="ImkMiQtcr7QwH4ZMUTRw-7">
          <mxGeometry width="50" height="50" relative="1" as="geometry">
            <mxPoint x="591" y="376" as="sourcePoint" />
            <mxPoint x="610" y="515" as="targetPoint" />
            <Array as="points" />
          </mxGeometry>
        </mxCell>
        <mxCell id="ImkMiQtcr7QwH4ZMUTRw-7" value="&lt;b&gt;&lt;font style=&quot;font-size: 15px;&quot;&gt;QC RUN&lt;br&gt;(TitanLib task)&lt;br&gt;&lt;/font&gt;&lt;/b&gt;" style="rounded=0;whiteSpace=wrap;html=1;strokeWidth=3;" vertex="1" parent="1">
          <mxGeometry x="490" y="390" width="150" height="70" as="geometry" />
        </mxCell>
        <mxCell id="ImkMiQtcr7QwH4ZMUTRw-43" value="&lt;font color=&quot;#0000ff&quot;&gt;&lt;b&gt;2. store raw data&lt;/b&gt;&lt;/font&gt;" style="text;html=1;strokeColor=none;fillColor=none;align=center;verticalAlign=middle;whiteSpace=wrap;rounded=0;" vertex="1" parent="1">
          <mxGeometry x="470" y="285" width="60" height="30" as="geometry" />
        </mxCell>
        <mxCell id="ImkMiQtcr7QwH4ZMUTRw-44" value="&lt;b&gt;&lt;font color=&quot;#0000ff&quot;&gt;4. store to output bucket using Geomesa&lt;/font&gt;&lt;/b&gt;" style="text;html=1;strokeColor=none;fillColor=none;align=center;verticalAlign=middle;whiteSpace=wrap;rounded=0;" vertex="1" parent="1">
          <mxGeometry x="520" y="500" width="60" height="70" as="geometry" />
        </mxCell>
        <mxCell id="ImkMiQtcr7QwH4ZMUTRw-46" value="&lt;b&gt;&lt;font color=&quot;#0000ff&quot;&gt;3. QC check&lt;/font&gt;&lt;/b&gt;" style="text;html=1;strokeColor=none;fillColor=none;align=center;verticalAlign=middle;whiteSpace=wrap;rounded=0;" vertex="1" parent="1">
          <mxGeometry x="640" y="410" width="60" height="30" as="geometry" />
        </mxCell>
        <mxCell id="ImkMiQtcr7QwH4ZMUTRw-47" value="&lt;b&gt;&lt;font color=&quot;#0000ff&quot;&gt;5. user is able to query the data&lt;/font&gt;&lt;/b&gt;" style="text;html=1;strokeColor=none;fillColor=none;align=center;verticalAlign=middle;whiteSpace=wrap;rounded=0;" vertex="1" parent="1">
          <mxGeometry x="380" y="155" width="60" height="30" as="geometry" />
        </mxCell>
        <mxCell id="ImkMiQtcr7QwH4ZMUTRw-48" value="" style="shape=flexArrow;endArrow=classic;startArrow=classic;html=1;rounded=0;entryX=0.5;entryY=1;entryDx=0;entryDy=0;width=0;startSize=5.33;endSize=5.33;" edge="1" parent="1" target="ImkMiQtcr7QwH4ZMUTRw-12">
          <mxGeometry width="100" height="100" relative="1" as="geometry">
            <mxPoint x="210" y="260" as="sourcePoint" />
            <mxPoint x="50" y="370" as="targetPoint" />
          </mxGeometry>
        </mxCell>
        <mxCell id="ImkMiQtcr7QwH4ZMUTRw-12" value="&lt;b&gt;&lt;font color=&quot;#0000ff&quot;&gt;1. fetch new data (periodically)&lt;/font&gt;&lt;/b&gt;" style="text;html=1;strokeColor=none;fillColor=none;align=center;verticalAlign=middle;whiteSpace=wrap;rounded=0;rotation=-90;" vertex="1" parent="1">
          <mxGeometry x="130" y="390" width="100" height="30" as="geometry" />
        </mxCell>
      </root>
    </mxGraphModel>
  </diagram>
</mxfile>
